<?xml version="1.0" encoding="UTF-8"?><!DOCTYPE svg PUBLIC "-//W3C//DTD SVG 1.1//EN" "http://www.w3.org/Graphics/SVG/1.1/DTD/svg11.dtd"><svg xmlns="http://www.w3.org/2000/svg" xmlns:xlink="http://www.w3.org/1999/xlink" version="1.1" width="24" height="24" viewBox="0 0 24 24"><path d="M6,14.03C6.55,14.03 7,14.48 7,15.03C7,15.58 6.55,16.03 6,16.03C3.24,16.03 1,13.79 1,11.03C1,8.27 3.24,6.03 6,6.03C7,3.68 9.3,2.03 12,2.03C15.43,2.03 18.24,4.69 18.5,8.06L19,8.03C21.21,8.03 23,9.82 23,12.03C23,14.23 21.21,16.03 19,16.03H18C17.45,16.03 17,15.58 17,15.03C17,14.47 17.45,14.03 18,14.03H19C20.1,14.03 21,13.13 21,12.03C21,10.93 20.1,10.03 19,10.03H17V9.03C17,6.27 14.76,4.03 12,4.03C9.5,4.03 7.45,5.84 7.06,8.21C6.73,8.09 6.37,8.03 6,8.03C4.34,8.03 3,9.37 3,11.03C3,12.69 4.34,14.03 6,14.03M12,14.15C12.18,14.39 12.37,14.66 12.56,14.94C13,15.56 14,17.03 14,18C14,19.11 13.1,20 12,20C10.9,20 10,19.1 10,18C10,17.03 11,15.56 11.44,14.94C11.63,14.66 11.82,14.4 12,14.15M12,11.03L11.5,11.59C11.5,11.59 10.65,12.55 9.79,13.81C8.93,15.06 8,16.56 8,18C8,20.21 9.79,22 12,22C14.21,22 16,20.21 16,18C16,16.56 15.07,15.06 14.21,13.81C13.35,12.55 12.5,11.59 12.5,11.59" /></svg>