<?xml version="1.0" encoding="UTF-8"?>
<svg width="138px" height="146px" viewBox="0 0 138 146" version="1.1" xmlns="http://www.w3.org/2000/svg" xmlns:xlink="http://www.w3.org/1999/xlink">
    <title>编组 2备份 4</title>
    <defs>
        <linearGradient x1="42.6722626%" y1="13.5075845%" x2="58.7114688%" y2="100%" id="linearGradient-1">
            <stop stop-color="#3999FF" offset="0%"></stop>
            <stop stop-color="#8F28FB" offset="100%"></stop>
        </linearGradient>
        <linearGradient x1="50%" y1="15.5408894%" x2="50%" y2="100%" id="linearGradient-2">
            <stop stop-color="#722DFA" offset="0%"></stop>
            <stop stop-color="#21D4FD" offset="100%"></stop>
        </linearGradient>
        <linearGradient x1="50%" y1="0%" x2="50%" y2="100%" id="linearGradient-3">
            <stop stop-color="#0DBBFA" offset="0%"></stop>
            <stop stop-color="#2EF4D0" offset="100%"></stop>
        </linearGradient>
        <linearGradient x1="40.4455375%" y1="0%" x2="61.1107186%" y2="100%" id="linearGradient-4">
            <stop stop-color="#54E7FA" offset="0%"></stop>
            <stop stop-color="#3478FF" offset="100%"></stop>
        </linearGradient>
    </defs>
    <g id="页面-1" stroke="none" stroke-width="1" fill="none" fill-rule="evenodd">
        <g id="编组-2备份-4">
            <path d="M61.1454478,0 L80.8081453,0 C83.2200978,-4.36166956e-15 85.3680539,1.52588995 86.1620863,3.80339469 L133.110133,138.463395 C134.14103,141.420295 132.579697,144.653043 129.622797,145.683941 C129.022705,145.893158 128.391709,146 127.756192,146 L104.065574,146 L104.065574,146 L55.7915068,7.53660531 C54.7606091,4.57970533 56.3219425,1.34695661 59.2788425,0.316058965 C59.8789348,0.106841966 60.5099303,8.99852687e-15 61.1454478,0 Z" id="矩形备份-19" fill="url(#linearGradient-1)" transform="translate(94.450820, 73.000000) scale(-1, 1) translate(-94.450820, -73.000000) "></path>
            <path d="M10.7758114,0.143137255 L28.2717621,0.143137255 C31.4003503,0.143137255 33.937707,2.67721101 33.9417574,5.8057966 L34.0758197,109.356863 L34.0758197,109.356863 L2.40368852,141.419608 L2.27081564,8.65664929 C2.26611457,3.95946985 6.0701199,0.147842583 10.7672993,0.143141514 C10.7701367,0.143138675 10.772974,0.143137255 10.7758114,0.143137255 Z" id="矩形备份-20" fill="url(#linearGradient-2)" transform="translate(18.169057, 70.781373) scale(-1, 1) translate(-18.169057, -70.781373) "></path>
            <path d="M59.4954713,57.5193828 L80.5061701,57.5193828 C83.6322889,57.5193828 86.1686187,60.0496067 86.1761536,63.1757164 L86.440508,172.851892 C86.4456008,174.964841 85.2753699,176.905341 83.4041828,177.886788 L54.099775,193.257088 L54.099775,193.257088 L53.8254839,63.201341 C53.8188796,60.0698934 56.3520656,57.5259998 59.4835131,57.5193954 C59.4874992,57.519387 59.4914852,57.5193828 59.4954713,57.5193828 Z" id="矩形备份-21" fill="url(#linearGradient-3)" transform="translate(70.131148, 125.388235) rotate(-270.000000) translate(-70.131148, -125.388235) "></path>
            <path d="M8.0988647,0 L27.7025748,0 C30.0859285,1.09876935e-16 32.2148633,1.49046324 33.0303471,3.72996343 L83.9352009,143.526025 L83.9352009,143.526025 L84.8360656,146 L57.1334908,146 C54.7501371,146 52.6212023,144.509537 51.8057185,142.270037 L2.77109236,7.61003657 C1.69963975,4.66758916 3.21638072,1.41368027 6.15882813,0.34222766 C6.78058382,0.115823698 7.43717075,1.89790805e-15 8.0988647,0 Z" id="矩形备份-22" fill="url(#linearGradient-4)"></path>
        </g>
    </g>
</svg>